<?xml version="1.0" standalone="no"?>
<!DOCTYPE svg PUBLIC "-//W3C//DTD SVG 20010904//EN"
 "http://www.w3.org/TR/2001/REC-SVG-20010904/DTD/svg10.dtd">
<svg version="1.0" xmlns="http://www.w3.org/2000/svg"
 width="512.000000pt" height="504.000000pt" viewBox="0 0 512.000000 504.000000"
 preserveAspectRatio="xMidYMid meet">
<metadata>
Created by potrace 1.16, written by Peter Selinger 2001-2019
</metadata>
<g transform="translate(0.000000,504.000000) scale(0.100000,-0.100000)"
fill="#000000" stroke="none">
<path d="M2370 4956 c-828 -391 -1599 -948 -2206 -1594 -105 -111 -164 -182
-164 -195 0 -78 58 -468 106 -712 130 -662 367 -1339 671 -1925 73 -139 187
-346 199 -359 7 -7 284 -60 449 -85 471 -71 618 -81 1160 -81 502 1 615 8
1020 66 179 25 472 78 526 94 30 10 269 465 404 770 290 656 498 1417 572
2088 l17 156 -48 55 c-72 84 -377 389 -508 508 -502 455 -1060 838 -1644 1131
-170 85 -350 167 -366 167 -7 -1 -92 -38 -188 -84z m313 3 c146 -65 437 -216
603 -311 599 -346 1191 -815 1669 -1324 124 -132 142 -155 139 -180 -47 -387
-76 -564 -140 -854 -101 -449 -256 -918 -446 -1350 -91 -207 -352 -717 -382
-747 -12 -12 -428 -84 -648 -113 -778 -99 -1648 -65 -2409 96 l-76 16 -64 112
c-312 545 -582 1233 -734 1869 -69 292 -144 719 -161 928 l-7 76 125 134 c614
660 1385 1221 2228 1620 91 43 171 78 178 79 6 0 63 -23 125 -51z"/>
<path d="M2370 4847 c-598 -284 -1116 -623 -1630 -1066 -147 -127 -522 -496
-594 -584 l-39 -48 17 -141 c87 -714 271 -1383 558 -2033 131 -296 345 -700
376 -709 10 -3 64 -14 122 -25 914 -177 1823 -181 2710 -10 85 17 162 32 172
35 20 6 92 131 218 379 293 578 500 1171 625 1790 44 218 88 500 101 645 l6
76 -139 149 c-438 469 -954 882 -1537 1232 -197 118 -708 379 -761 388 -23 4
-68 -13 -205 -78z m332 -3 c571 -261 1118 -614 1618 -1042 138 -119 532 -501
621 -604 l50 -57 -16 -133 c-63 -520 -186 -1042 -361 -1522 -54 -149 -67 -178
-62 -140 2 14 -28 55 -92 127 -84 93 -96 103 -105 87 -7 -13 -9 6 -6 68 3 74
7 91 27 115 32 38 47 101 41 169 -4 49 -2 61 19 89 47 64 69 153 69 279 -1
165 -49 351 -144 555 -33 72 -131 230 -131 213 0 -3 10 -46 22 -95 17 -69 22
-119 22 -233 2 -403 -147 -585 -419 -515 -61 16 -191 81 -235 117 l-25 20 25
-14 c14 -8 48 -28 75 -43 l50 -29 -39 44 c-56 63 -289 320 -429 472 l-117 128
-15 -33 c-19 -41 -17 -33 62 237 67 230 95 307 121 328 8 7 47 15 85 18 l70 5
-61 43 c-83 58 -158 90 -245 103 -51 8 -84 20 -114 41 -61 42 -106 58 -163 58
-48 0 -53 3 -109 59 -37 37 -84 71 -126 91 -42 20 -73 42 -84 62 l-19 29 -21
-30 c-12 -16 -47 -41 -77 -55 -31 -14 -79 -45 -107 -68 -29 -23 -44 -33 -34
-22 9 11 17 24 17 28 0 4 -53 65 -117 136 -86 93 -121 125 -130 118 -7 -5 -18
-8 -25 -5 -8 4 -7 6 5 6 23 1 22 21 -2 21 -14 0 -21 10 -25 36 -4 19 -10 43
-13 52 -3 9 19 -7 49 -36 l55 -53 89 12 c85 11 143 28 102 29 -10 0 -18 3 -18
8 0 4 -7 52 -15 107 -18 125 -18 125 0 125 8 0 15 5 15 10 0 10 -49 7 -110 -7
-24 -5 -24 -5 -4 -13 18 -7 23 -22 33 -97 16 -131 15 -143 -12 -143 -14 0 -39
17 -64 43 -38 38 -41 44 -27 61 28 39 12 100 -30 116 -15 5 -52 3 -102 -7 -78
-15 -119 -33 -77 -33 16 0 23 -8 28 -31 4 -17 4 -33 1 -36 -3 -4 -6 1 -6 10 0
10 -9 26 -21 38 -17 17 -23 18 -37 7 -15 -12 -16 -11 -3 4 12 16 5 27 -60 100
-40 46 -75 85 -76 87 -2 2 -15 -1 -30 -8 -58 -26 -2 11 147 99 118 69 681 360
697 360 1 0 67 -29 145 -66z m-74 -1034 c72 -33 172 -121 172 -153 0 -10 -34
-158 -75 -330 -92 -380 -98 -408 -86 -420 24 -24 38 10 85 204 26 112 66 280
89 373 l40 169 54 -6 c54 -6 140 -46 149 -71 3 -7 -11 -64 -30 -127 -152 -505
-226 -761 -226 -783 0 -30 25 -35 38 -8 5 9 67 213 137 452 71 239 132 439
135 443 10 12 105 -7 164 -32 l49 -21 -26 -24 c-34 -31 -48 -61 -90 -191 -42
-128 -262 -872 -285 -960 -8 -33 -16 -62 -18 -64 -2 -2 -27 17 -56 42 -29 25
-65 56 -80 69 -25 20 -29 33 -38 113 -5 50 -10 115 -10 145 0 32 -8 72 -20 97
-23 53 -112 143 -139 143 -34 0 -126 -98 -145 -156 -15 -46 -35 -207 -36 -291
0 -27 -11 -41 -80 -98 -52 -43 -82 -61 -85 -53 -3 7 -41 139 -85 293 -126 437
-228 770 -254 829 -13 29 -36 65 -52 79 l-28 26 50 21 c59 26 154 45 164 33 4
-4 62 -195 129 -423 146 -495 142 -484 165 -488 16 -3 18 2 14 40 -3 23 -62
234 -131 467 -70 232 -124 427 -121 432 14 24 98 61 149 66 30 3 55 4 55 2 0
-2 36 -155 80 -339 44 -184 80 -342 80 -351 0 -9 9 -27 19 -40 15 -19 22 -21
32 -12 13 13 6 47 -101 487 -33 137 -60 257 -60 266 0 26 92 109 161 145 35
18 67 34 72 34 4 1 38 -13 75 -29z m-7 -1054 c81 -106 70 -225 -28 -319 l-29
-27 -38 37 c-73 73 -96 145 -72 228 19 62 83 139 112 133 10 -2 35 -25 55 -52z
m-1820 -68 c-9 -287 91 -492 263 -539 132 -36 278 5 495 141 36 22 74 40 86
40 29 0 52 -27 76 -89 29 -77 25 -182 -12 -353 -39 -176 -45 -321 -15 -408 41
-121 119 -224 237 -311 75 -56 75 -63 4 -75 -22 -3 -123 -33 -225 -67 -175
-58 -190 -61 -285 -61 -121 -1 -155 14 -233 99 -57 62 -65 81 -29 70 47 -14
216 -18 232 -5 12 10 13 16 4 26 -8 10 -37 14 -98 14 -153 0 -250 46 -321 152
-22 33 -40 64 -40 68 0 4 27 0 59 -11 33 -10 107 -24 166 -30 90 -11 108 -11
120 2 27 27 1 38 -110 48 -61 6 -141 19 -178 31 -109 34 -177 114 -177 209 0
27 2 26 95 -13 86 -36 260 -70 286 -56 11 6 18 17 16 23 -4 12 -15 15 -155 42
-127 24 -189 51 -243 105 -38 38 -49 57 -59 103 -6 31 -8 61 -5 67 4 7 26 0
58 -19 83 -47 281 -86 316 -63 33 23 3 39 -91 50 -51 6 -119 20 -150 32 -75
28 -150 96 -185 168 -24 50 -28 71 -32 169 -2 77 2 137 14 194 24 122 98 349
113 349 4 0 5 -46 3 -102z m3563 5 c169 -456 96 -749 -200 -802 -32 -6 -86
-14 -119 -18 -44 -6 -61 -12 -63 -25 -10 -52 219 -19 336 49 24 14 46 22 49
19 4 -4 2 -32 -5 -63 -26 -127 -128 -193 -352 -229 -96 -16 -122 -30 -94 -51
26 -19 219 19 313 62 67 31 71 31 71 -4 0 -70 -49 -144 -121 -181 -42 -22
-162 -46 -271 -55 -68 -6 -78 -9 -78 -26 0 -11 9 -21 24 -25 34 -8 194 13 266
35 75 24 77 15 12 -71 -37 -50 -61 -70 -115 -97 -61 -31 -78 -35 -176 -40 -60
-3 -113 -9 -116 -13 -4 -4 -5 -14 -2 -23 5 -12 23 -15 84 -15 43 1 98 5 123
10 25 4 47 7 49 4 14 -13 -87 -116 -144 -147 -34 -19 -56 -22 -140 -21 -95 0
-110 3 -285 61 -102 34 -203 64 -225 67 -71 12 -71 19 4 75 187 139 276 316
256 515 -3 39 -20 137 -36 218 -42 212 -38 312 14 389 34 49 65 44 193 -31
128 -77 202 -107 285 -119 196 -27 340 79 396 292 11 43 17 107 17 209 1 82 4
148 7 148 4 0 23 -44 43 -97z m-1802 -343 c7 0 36 25 65 56 34 36 55 51 57 42
3 -7 10 -48 16 -90 26 -181 92 -361 163 -443 102 -119 263 -131 334 -25 26 38
29 78 12 190 -9 58 -9 85 1 120 16 59 82 126 133 135 21 4 40 5 43 3 2 -3 -8
-32 -23 -64 -38 -83 -42 -194 -13 -329 64 -300 65 -390 7 -509 -46 -91 -122
-176 -230 -252 -81 -58 -89 -61 -159 -67 -76 -7 -154 -29 -226 -66 l-42 -21 0
67 c0 79 -27 146 -83 206 -39 41 -30 47 26 17 20 -11 45 -20 56 -20 51 0 151
177 151 268 0 69 -16 106 -100 222 -87 121 -127 206 -147 312 -9 46 -20 87
-24 92 -13 14 -39 -14 -39 -41 0 -14 -12 -62 -26 -107 l-25 -83 20 -61 c27
-80 26 -86 -5 -34 -23 39 -44 54 -44 33 0 -5 -30 -49 -66 -98 -92 -122 -118
-180 -111 -249 6 -58 50 -155 99 -216 35 -45 60 -48 115 -16 l38 22 -41 -47
c-63 -72 -79 -111 -79 -193 l0 -72 -59 30 c-63 32 -166 58 -232 58 -85 0 -291
177 -354 302 -61 122 -63 217 -10 468 19 92 30 174 30 225 0 77 -5 95 -57 213
-7 17 41 16 76 -2 42 -22 89 -81 102 -128 9 -32 9 -62 0 -118 -22 -146 -7
-200 66 -243 44 -25 129 -25 181 2 123 63 225 271 263 540 l13 90 58 -59 c32
-33 64 -60 70 -60z m305 -134 c64 -70 120 -178 139 -267 8 -39 13 -74 10 -76
-10 -11 -94 47 -121 83 -57 75 -135 269 -135 337 0 17 2 17 29 -2 16 -12 51
-45 78 -75z m-514 52 c-32 -170 -130 -341 -220 -387 -22 -11 -23 -10 -23 22 0
93 66 231 156 327 74 78 97 88 87 38z m268 -363 c15 -33 53 -94 84 -135 78
-104 95 -139 95 -202 0 -39 -8 -67 -28 -103 l-27 -50 -179 0 -179 -1 -28 61
c-34 72 -37 121 -8 177 27 54 129 189 138 184 4 -3 18 -26 31 -53 31 -61 37
-144 17 -214 -13 -45 -14 -51 -1 -35 21 30 54 123 54 156 0 16 -11 73 -25 126
-29 110 -29 122 -13 177 l12 40 15 -34 c8 -19 27 -61 42 -94z m-29 -647 c85
-112 83 -215 -5 -322 l-23 -28 -40 45 c-61 69 -80 158 -50 231 14 34 72 106
86 106 4 0 19 -15 32 -32z m-261 -322 c31 -8 91 -31 133 -51 l76 -37 0 -72 c0
-40 -3 -93 -6 -118 l-6 -44 -78 22 c-192 56 -336 56 -625 1 -99 -19 -208 -37
-242 -41 l-63 -6 1 28 c0 15 8 72 17 127 17 100 17 100 47 103 59 5 152 24
279 59 71 19 150 39 175 44 64 11 225 3 292 -15z m879 -16 c207 -56 230 -61
293 -68 l62 -7 17 -100 c9 -55 17 -112 17 -128 l1 -27 -57 6 c-32 3 -114 17
-183 30 -197 37 -319 54 -401 54 -87 0 -238 -24 -314 -50 l-52 -18 -7 115 c-4
64 -4 119 1 122 21 18 165 77 228 93 102 26 245 18 395 -22z m-860 -305 c36
-9 99 -27 141 -40 70 -24 78 -24 110 -11 108 45 201 60 364 60 137 -1 182 -5
315 -32 85 -17 184 -33 220 -37 104 -10 110 -12 110 -42 l0 -26 -67 7 c-37 4
-148 23 -247 43 -287 57 -481 52 -682 -17 -54 -19 -54 -19 -121 4 -191 65
-377 68 -673 13 -107 -20 -221 -39 -252 -43 -58 -6 -58 -6 -58 20 0 22 4 26
29 26 16 0 126 18 243 40 117 21 224 41 238 43 66 11 270 6 330 -8z"/>
<path d="M2463 4373 c15 -4 17 -19 17 -123 0 -103 -2 -120 -17 -129 -14 -8 -2
-10 47 -10 49 0 61 2 48 10 -14 8 -18 23 -18 64 0 59 5 63 58 49 19 -6 22 -13
22 -60 0 -44 -3 -54 -17 -55 -10 -1 9 -5 42 -9 68 -7 76 -5 51 13 -16 12 -17
24 -11 125 6 85 11 112 21 112 8 0 14 5 14 10 0 6 -28 10 -65 10 -63 0 -64 -1
-47 -18 13 -13 17 -29 14 -60 -4 -42 -4 -42 -44 -42 l-39 0 6 48 c4 26 14 53
23 60 13 10 4 12 -54 11 -38 -1 -61 -3 -51 -6z"/>
<path d="M2820 4251 c-34 -61 -70 -117 -81 -124 -25 -18 -14 -27 30 -27 25 0
32 3 22 9 -9 6 -12 18 -7 36 7 26 10 27 47 22 47 -6 44 -4 53 -39 5 -23 3 -28
-11 -28 -32 -1 7 -17 55 -23 42 -5 51 0 33 18 -5 6 -24 66 -41 135 -17 69 -33
126 -35 128 -2 2 -31 -46 -65 -107z"/>
<path d="M3068 4317 c8 -9 11 -24 9 -34 -48 -169 -58 -193 -79 -193 -32 0 -10
-18 32 -26 31 -7 34 -6 22 9 -11 13 -9 29 9 96 12 45 25 81 29 81 4 0 21 -42
39 -92 18 -51 38 -106 45 -123 l13 -30 17 60 c53 185 57 195 73 195 23 0 11 9
-25 19 -28 8 -30 8 -21 -8 8 -12 6 -34 -8 -81 l-19 -65 -28 81 c-33 100 -42
112 -86 121 -31 6 -34 5 -22 -10z"/>
<path d="M3337 4238 c10 -12 5 -35 -29 -121 -34 -88 -45 -107 -62 -107 -39 -1
99 -52 142 -53 69 -1 122 63 122 146 0 69 -42 106 -160 142 -21 7 -23 6 -13
-7z m112 -70 c14 -24 13 -32 -2 -81 -23 -73 -51 -107 -88 -107 -16 0 -29 5
-29 13 0 6 16 56 37 110 39 105 54 116 82 65z"/>
<path d="M3602 4009 c-56 -49 -110 -89 -120 -89 -12 0 -8 -6 13 -20 35 -23 53
-26 36 -6 -9 10 -7 19 7 36 17 22 18 22 55 4 33 -16 38 -22 35 -49 -2 -21 -8
-30 -20 -29 -28 3 -22 -4 32 -31 58 -29 64 -30 52 -10 -4 9 -2 70 5 143 7 70
12 130 11 133 -2 4 -49 -33 -106 -82z"/>
<path d="M3814 4014 c3 -11 2 -55 -4 -98 -11 -91 -41 -151 -71 -143 -11 3 -19
4 -19 2 0 -1 25 -19 55 -39 30 -20 55 -32 55 -26 0 5 -4 10 -10 10 -16 0 -12
18 14 59 25 40 136 111 173 111 15 0 14 3 -7 20 -30 23 -41 25 -34 6 4 -10 -9
-24 -36 -41 -71 -45 -71 -45 -64 21 3 33 12 64 19 70 11 8 9 13 -8 24 -12 7
-33 20 -46 29 -22 14 -23 14 -17 -5z"/>
<path d="M4010 3745 c-58 -30 -116 -54 -129 -54 l-24 -1 23 -25 c27 -29 38
-32 36 -9 0 9 8 22 19 30 18 12 24 10 52 -12 29 -22 31 -27 21 -55 -8 -24 -14
-28 -32 -23 -14 4 -6 -7 24 -34 l45 -39 12 46 c6 25 25 83 42 129 32 87 36
102 24 101 -5 0 -55 -24 -113 -54z"/>
<path d="M4250 3674 c0 -29 -153 -176 -174 -168 -23 9 -20 1 13 -30 28 -27 28
-27 24 -4 -3 18 10 37 61 88 37 35 66 60 66 54 0 -5 -9 -60 -21 -123 -11 -62
-19 -117 -17 -122 2 -6 42 25 89 69 46 44 93 81 103 83 16 4 15 7 -7 28 -22
20 -25 21 -21 5 3 -13 -11 -34 -47 -69 -50 -49 -51 -49 -45 -20 4 17 12 62 20
102 l13 72 -28 27 c-27 25 -29 26 -29 8z"/>
<path d="M4446 3468 c7 -21 -162 -160 -188 -154 -26 6 -22 -4 18 -49 20 -22
34 -33 31 -24 -4 12 18 35 76 81 104 82 105 82 124 66 14 -12 15 -11 5 7 -18
31 -73 92 -66 73z"/>
</g>
</svg>
